# xmcd CD database file generated by Grip 3.3.1
# 
# Track frame offsets:
#       150
#       70417
#       111595
#       137302
#       179675
#       226175
#       266450
#       295475
# 
# Disc length: 4472 seconds
# 
# Revision: 7
# Processed by: cddbd v1.5.2PL0 Copyright (c) Steve Scherf et al.
# Submitted via: Grip 3.3.1
# 
DISCID=79117608
DTITLE=Cleveland Orchestra - George Szell - Brahms: Symphonies No 2 and 3
DYEAR=1967
DGENRE=Classical
TTITLE0=Symphony No 2  in D major, Op.73 - I. Allegro non troppo
TTITLE1=II. Adagio non troppo
TTITLE2=III. Allegretto grazioso (Quasi Andantino) - Presto ma non assa
TTITLE2=i
TTITLE3=IV. Allegro con spirito
TTITLE4=Symphony No 3 in F major, Op.90 - I. Allegro con brio
TTITLE5=II. Andante
TTITLE6=III.  Poco Allegretto
TTITLE7=IV.  Allegro
EXTD=YEAR: 1967
EXTT0=
EXTT1=
EXTT2=
EXTT3=
EXTT4=
EXTT5=
EXTT6=
EXTT7=
PLAYORDER=
